  <svg width="400" height="400" viewBox="= 0 400 400" xmlns='http://www.w3.org/2000/svg'>
    <!--background-->
    <defs>
      <!-- <linearGradient id="Gradient2" x1="0" x2="0" y1="0" y2="1">
        <stop stop-color="lightgreen" />
      </linearGradient> -->
  
      <pattern id="Pattern" x="0" y="0" width=".25" height=".25">
        <rect x="0" y="0" width="50" height="50" fill="#50501F" />
        <rect x="50" y="50" width="50" height="50" fill="#50501F" />
        <rect x="0" y="50" width="50" height="50" fill="#C54438" />
        <rect x="50" y="0" width="50" height="50" fill="#C54438" />
      </pattern>
    </defs>
  
    <rect fill="url(#Pattern)" width="400" height="400" />

    <!--tree-->
    <polygon points="200,120 60,300 340,300" fill="#204316" />
    <polygon points="200,60 100,200 300,200" fill="#2E5C21" />
    <polygon points="200,0 140,100 260,100" fill="#428330" />
    <rect x = "170" y = "300" height = "70" width = "60" fill = "#6D2C23"/>

    <!--ball-->
    <circle cx = "204" cy = "22" r = "3" fill = "none" stroke = "#F3CB8B" stroke-width = "1"/>
    <rect x = "198" y = "25" height = "4" width = "12" fill = "#F3CB8B"/>
    <circle cx = "204" cy = "38" r = "10" fill = "pink" stroke = "red" stroke-width = "1"/>

    <!--gingerbread-->
    <circle cx = "185" cy = "150" r = "10" fill = "#B78359"/>

    <line x1="175" y1="165" x2="195" y2="165" stroke="#B78359" stroke-width="10" stroke-linecap="round"/>
    <line x1="185" y1="165" x2="175" y2="185" stroke="#B78359" stroke-width="10" stroke-linecap="round"/>
    <line x1="185" y1="165" x2="195" y2="185" stroke="#B78359" stroke-width="10" stroke-linecap="round"/>    

    <circle cx = "190" cy = "150" r = "2" fill = "white"/>
    <circle cx = "180" cy = "150" r = "2" fill = "white"/>
    <line x1="183" y1="155" x2="187" y2="155" stroke="white" stroke-width="3" stroke-linecap="round"/>
    <line x1="183" y1="155" x2="187" y2="155" stroke="#B78359" stroke-width="1" stroke-linecap="round"/>  
    <circle cx = "185" cy = "165" r = "2"/>
    <circle cx = "185" cy = "172" r = "2"/>

  </svg>
